<svg height='300px' width='300px' xmlns="http://www.w3.org/2000/svg"
  xmlns:xlink="http://www.w3.org/1999/xlink" version="1.1" x="0px" y="0px" viewBox="0 0 100 100"
  enable-background="new 0 0 100 100" xml:space="preserve">
  <path fill="#d5d0cb"
    d="M17.5,64.5h15.6c3.4,0,6.5-1.3,8.9-3.7L60.8,42c1.6-1.6,3.8-2.5,6.1-2.5h10.8l-1.6,1.6c-0.8,0.8-0.8,2,0,2.8  c0.4,0.4,0.9,0.6,1.4,0.6s1-0.2,1.4-0.6l5-5c0.1-0.1,0.2-0.2,0.3-0.3c0,0,0.1-0.1,0.1-0.1c0-0.1,0.1-0.1,0.1-0.2  c0-0.1,0-0.1,0.1-0.2c0-0.1,0-0.1,0.1-0.2c0.1-0.3,0.1-0.5,0-0.8c0-0.1,0-0.1-0.1-0.2c0-0.1,0-0.1-0.1-0.2c0-0.1-0.1-0.1-0.1-0.2  c0,0,0-0.1-0.1-0.1c-0.1-0.1-0.2-0.2-0.3-0.3l-5-5c-0.8-0.8-2-0.8-2.8,0c-0.8,0.8-0.8,2,0,2.8l1.6,1.6H66.9c-3.4,0-6.5,1.3-8.9,3.7  L39.2,58c-1.6,1.6-3.8,2.5-6.1,2.5H17.5c-1.1,0-2,0.9-2,2S16.4,64.5,17.5,64.5z">
  </path>
  <path fill="#d5d0cb"
    d="M17.5,39.5h15.6c2.3,0,4.4,0.9,6.1,2.5l4.3,4.3c0.4,0.4,0.9,0.6,1.4,0.6c0.5,0,1-0.2,1.4-0.6  c0.8-0.8,0.8-2,0-2.8L42,39.2c-2.4-2.4-5.5-3.7-8.9-3.7H17.5c-1.1,0-2,0.9-2,2S16.4,39.5,17.5,39.5z">
  </path>
  <path fill="#d5d0cb"
    d="M76.1,68.9c0.4,0.4,0.9,0.6,1.4,0.6s1-0.2,1.4-0.6l5-5c0.1-0.1,0.2-0.2,0.3-0.3c0,0,0.1-0.1,0.1-0.1  c0-0.1,0.1-0.1,0.1-0.2c0-0.1,0-0.1,0.1-0.2c0-0.1,0-0.1,0.1-0.2c0.1-0.3,0.1-0.5,0-0.8c0-0.1,0-0.1-0.1-0.2c0-0.1,0-0.1-0.1-0.2  c0-0.1-0.1-0.1-0.1-0.2c0,0,0-0.1-0.1-0.1c-0.1-0.1-0.2-0.2-0.3-0.3l-5-5c-0.8-0.8-2-0.8-2.8,0c-0.8,0.8-0.8,2,0,2.8l1.6,1.6H66.9  c-2.3,0-4.4-0.9-6.1-2.5l-4.4-4.4c-0.8-0.8-2-0.8-2.8,0c-0.8,0.8-0.8,2,0,2.8l4.4,4.4c2.4,2.4,5.5,3.7,8.9,3.7h10.8l-1.6,1.6  C75.3,66.9,75.3,68.1,76.1,68.9z">
  </path>
</svg>